<svg width="36" height="36" viewBox="0 0 36 36" fill="none" xmlns="http://www.w3.org/2000/svg">
<circle cx="18" cy="18" r="17.5" stroke="white"/>
<path d="M21.5605 11.9121V11.915C23.5061 11.9681 25.0723 13.5658 25.0723 15.5244V21.4746C25.0723 23.4665 23.4523 25.0869 21.4609 25.0869H15.5117C13.5202 25.0869 11.9004 23.4665 11.9004 21.4746V15.5244C11.9004 13.5324 13.5202 11.9121 15.5117 11.9121H21.5605ZM15.5117 12.8721C14.05 12.8721 12.8604 14.0623 12.8604 15.5244V21.4746C12.8604 22.9366 14.05 24.127 15.5117 24.127H21.4609C22.9226 24.1269 24.1113 22.9366 24.1113 21.4746V15.5244C24.1113 14.0623 22.9225 12.8721 21.4609 12.8721H15.5117Z" fill="white" stroke="white" stroke-width="0.2"/>
<path d="M18.4863 14.8516C20.4974 14.8516 22.1337 16.4875 22.1338 18.499C22.1338 20.5106 20.4974 22.1475 18.4863 22.1475C16.4753 22.1474 14.8398 20.5106 14.8398 18.499C14.8399 16.4875 16.4753 14.8516 18.4863 14.8516ZM18.4863 15.8115C17.0052 15.8116 15.7998 17.0175 15.7998 18.499C15.7998 19.9807 17.0052 21.1865 18.4863 21.1865C19.9676 21.1865 21.1729 19.9807 21.1729 18.499C21.1728 17.0174 19.9676 15.8115 18.4863 15.8115Z" fill="white" stroke="white" stroke-width="0.2"/>
<path d="M22.1184 13.6914C21.5404 13.6914 21.0703 14.1616 21.0703 14.7395C21.0703 15.3175 21.5404 15.7877 22.1184 15.7877C22.6964 15.7877 23.1666 15.3175 23.1666 14.7395C23.1666 14.1615 22.6964 13.6914 22.1184 13.6914ZM22.1184 15.0271C21.9599 15.0271 21.8308 14.8981 21.8308 14.7395C21.8308 14.5809 21.9599 14.4519 22.1184 14.4519C22.2771 14.4519 22.4061 14.5809 22.4061 14.7395C22.4061 14.8981 22.2771 15.0271 22.1184 15.0271Z" fill="white"/>
</svg>
